<svg id="Layer_1" data-name="Layer 1" xmlns="http://www.w3.org/2000/svg" viewBox="0 0 354.79 234.37">
  <title>ckrogh</title>
  <g>
    <path d="M169.74,134.81l1.29.54c0,1,0,2.09,0,3.14a1.12,1.12,0,0,0,.42.83,1,1,0,0,0,.87-.26.93.93,0,0,0,.15-.88c-.82-1.29-.07-2.29.49-3.36.4-.76.74-1.56,1.14-2.33.17-.32.51-.56.64-.89a2.89,2.89,0,0,0,.3-1.39c0-.23-.57-.4-1.07-.71.59-1.06,1.33-2.19,1.86-3.41a4.57,4.57,0,0,0,.3-2.2c-.06-.56-.27-1,.31-1.42.22-.15.26-.52.41-.77.47-.76.92-1.53,1.44-2.25.13-.18.47-.21.72-.3a4.15,4.15,0,0,0,.72-.27,2,2,0,0,0-.34-1.07c-.72-.77-.75-.9.16-1.35.61-.31,1.09-.61,1.12-1.41,0-.32.34-.63.52-1a.54.54,0,0,0-.1-.16l-1-.74a10,10,0,0,1,1.06-.6c.46-.2.94-.32,1.7-.57l-1.06-.43,1-.61-.88-.66c.25-.25.51-.48.74-.73.47-.52.92-1,1.5-1.71a1.38,1.38,0,0,0-.17-.41,1.48,1.48,0,0,1,.19-2.21c1-.72,1.17-2.15,2.48-2.48,0,0,.07-.05.07-.07-.13-1.34,1-1.33,1.93-1.7l-.57-.88c1.4.3,1.82-.69,2.39-1.55l-1-.85,1.59-.37.21.86H192l.07,1.13a3,3,0,0,0,1-.2c1.16-.71,2.22-.25,3.29.17.12,0,.16.28.27.39s.45.61.66.6a3.11,3.11,0,0,0,1-.47l-.11-.27-.86-.06-.16-.22L198,99l-.36-.1.12-1.41c1.07,1,2,1.08,3,.25a5.12,5.12,0,0,1,1.18-.41c1.17-.46,2.34-1,3.51-1.42a.92.92,0,0,1,.47-.11c1.2.23,2.39.48,3.7.76l-1.14.35c.41,1.41-1.15,1.68-1.63,2.88a3.27,3.27,0,0,0,1.17-.19,6.34,6.34,0,0,0,2.06-1.62,1.88,1.88,0,0,1,1.87-.86,7,7,0,0,1,2.25.27c-1,.42-1.93.83-1.72,2,1.15-.39,2.36-.83,3.6-1.18a3,3,0,0,1,1.11.17c-.1.65,0,1.31-.29,1.61s-.92.14-1.44.32c.88.57,1.95.38,3.09.51a4.46,4.46,0,0,1-2.72,2.31c1.69.54,1.69.54,1,1.74a21,21,0,0,0,2,.64,1.34,1.34,0,0,1,.85,1.9c-.16.27-.3.57-.56,1.06,1.12-.14,2.09-.85,2.95.17l-1.18.57,1,.53a1.56,1.56,0,0,1-2.12.29,11,11,0,0,0-1.28-.5l-.19.4c.27.17.53.46.8.47,1.21,0,2.43,0,3.64,0,.17,0,.34-.27.49-.44a1.82,1.82,0,0,1,2.28-.34c.81.56,1.38-.08,2-.36s.44-.62.28-1.1a1.25,1.25,0,0,1,.15-1,12.49,12.49,0,0,1,1.91-2.55A16.56,16.56,0,0,1,232.6,103c.15-.09.38-.12.44-.24.45-.87,1-.71,1.59-.14,1.09-1.44,2.68-1.92,4.18-2.57.64-.28,1.42-.39,1.64-1.33.07-.27.76-.53,1.17-.55a2.4,2.4,0,0,1,1.31.53c-.66.5-1.57-.31-2.05.74l1.32.5-.9.52c1.22.7,1.87.6,2.6-.34a3.08,3.08,0,0,1,3.94-.56l-.77.86,1.32.4-1.23,1.8c1.8.22,1.8.22,2.08-.87.5.14,1.2-.11,1.26.79,0,.08.11.23.16.23,1.06-.09,1.2.88,1.74,1.41s.66,1,.08,1.61-.58.83.13,1.25.51.83-.2,1.06-1.56.41-2.39.62c.79,1.32,1.87,1.44,3.24,1.11s2.55-.61,3.72.24c.3.21.67.68.61.94-.23,1,.38,1.12,1.05,1.2s1.33.08,1.22,1c0,.1.2.3.34.33.81.18.86.65.62,1.07l2.15,1.64s.16-.14.16-.26c-.1-2.35-.2-4.69-.35-7-.08-1.3-.34-2.59-.33-3.88,0-1.65.38-3.31.35-4.95,0-2.4.79-4.7.7-7.09a7.36,7.36,0,0,1,.37-1.37,10.2,10.2,0,0,0,0-1.36,6.53,6.53,0,0,1,0-1c.12-1,.28-2,.42-3a3,3,0,0,1,.07-.61c1-2.63,1.1-5.45,1.6-8.19.23-1.23.3-2.49.55-3.72a12.5,12.5,0,0,1,.77-1.83A16,16,0,0,0,268,70.1c.49-2,.84-4,1.44-5.9.48-1.55,1.26-3,1.88-4.49.52-1.27,1-2.55,1.49-3.83s.83-2.59,1.42-3.8,1.37-2.06,2-3.12a7.13,7.13,0,0,0,1.33-2.88,8.2,8.2,0,0,1,1.3-2.5,61.36,61.36,0,0,1,7.24-10c1.33-1.58,2.84-3,4.27-4.51.25-.27.45-.6.72-.85.55-.51,1.15-1,1.71-1.48s1-.93,1.45-1.4.89-.9,1.35-1.33c.8-.76,1.62-1.5,2.43-2.25l2.88-2.67a25.44,25.44,0,0,1,3.28-3c1.15-.75,1.8-2,2.91-2.66,2-1.23,4.1-2.21,6-3.55,3-2.11,6.54-2.46,9.85-3.59.34-.12.67-.31,1-.46,1.33-.57,2.63-1.2,4-1.66a1.6,1.6,0,0,1,1.39.45c.17.2-.09,1-.37,1.32a9.39,9.39,0,0,1-5.25,3.25,19.92,19.92,0,0,0-3.63,1.24q-4.12,2.07-8.13,4.36a16,16,0,0,0-2.29,1.93c-2.73,2.38-5.49,4.72-8.16,7.16-2,1.85-4,3.84-5.93,5.77a27.35,27.35,0,0,0-5.29,6.81c-.18.35-.58.56-.83.88A39.42,39.42,0,0,0,284,45.86c-.47,1.08-1.17,2-1.71,3.1-.64,1.26-1.19,2.57-1.84,3.83s-1.11,2.34-1.64,3.51a29.52,29.52,0,0,0-1.16,4,6.39,6.39,0,0,1-.45,1.12,24.54,24.54,0,0,0-2,8.39,15.55,15.55,0,0,1-.78,2.58c-.33,1.27-.66,2.55-.92,3.83-.41,2.06-.66,4.14-1.16,6.17-.42,1.74-1.09,3.42-1.64,5.12a1.25,1.25,0,0,0-.08.6,21.77,21.77,0,0,1,.16,6.74c-.1,1.33-.08,2.66-.15,4,0,.2-.21.39-.27.61-.12.41-.38.9-.26,1.24a7.71,7.71,0,0,1,0,4.82c-.44,1.57-.8,3.15-1.12,4.75a7.79,7.79,0,0,0,.06,1.8c0,1,.5,2-.09,2.93-.06.1,0,.43.11.46.82.31.73.86.87,1.63s-.47,1.22-.45,1.86c0,.3-.07.72.09.88a3.65,3.65,0,0,1,.56,4.56c-.18.28-.33.58-.56,1,1.75.57,1.64,1.87,1.54,3.29,0,.64.48,1.31.69,2a25,25,0,0,1,1,3.65c.1.65-.45,1.36.11,2,.3.36.48,1,.83,1.12,1.36.33,1.27,1.56,1.55,2.45.17.53.25.81.79.94.17,0,.36.39.36.6,0,.37-.3.89-.14,1.11a8.39,8.39,0,0,0,1.62,1.64c.91.73,1.9,1.33,2.07,2.66.09.78.73.94,1.31.38s.9-.92,1.36-1.38.73-.71.39-1.31a.58.58,0,0,1,.05-.48,10.11,10.11,0,0,1,1.89-2.63,3.22,3.22,0,0,0,1.14-2.44,5.11,5.11,0,0,1,2.09-3.53c.59-.41,1.51-.85.73-1.92a1,1,0,0,1,.22-1c1.14-.61,1.17-1.9,1.82-2.81a23.37,23.37,0,0,0,1-2.51c.36-.66,1.08-1.1,1.48-1.74,1.2-1.93,2.86-3.61,3.36-5.94.15-.73.18-1.49,1.22-1.49.1,0,.22-.28.28-.45.28-.68.5-1.39.83-2,.14-.28.5-.45.76-.67.1.32.21.63.31,1a1.31,1.31,0,0,1,0,.28l.26.1.75-1.85-1.55-.23c.32-1.44,1.8-1.52,2.66-2.36l-.37-.67a2.11,2.11,0,0,0,.21-.24,4.69,4.69,0,0,0,.79-1c.23-.52.4-.9,1.09-.78a2.16,2.16,0,0,0,1.06-.24c.58-.25,1-.44,1.61.18.28.29,1.15.14,1.72,0a2.78,2.78,0,0,1,3.4,1.39c.11.17.17.47.31.5,2,.46,1.9,2.36,2.7,3.67.67,1.11.57,2.47,1.42,3.55.6.77.06,1.59-1,2a3.65,3.65,0,0,0-.51.37,4,4,0,0,1,.89.24c.28.16.68.36.74.62.26,1.06.4,2.15.59,3.22l.24,1.38a14,14,0,0,1,.21,3.05,23.37,23.37,0,0,1-.68,4.71c-.08.32.59.91,1,1.25a2.73,2.73,0,0,1,1.2,2.23,4.65,4.65,0,0,1-1.12,3.37c.4,1.47.81,2.79,1.11,4.13.06.32-.3.72-.41,1.1s-.21.87-.08.95c.6.39,1.06,1.09,1.55,1.33,1.36.65,1.23,1.87,1.43,2.89.16.79.19,1.17,1.13,1.42a3.12,3.12,0,0,1,1.77,1.74c.63,1.58,1,3.28,1.46,4.92.22.73-.1,1-.77,1.08a2,2,0,0,0-.6.11,8.42,8.42,0,0,0-.8.52c.19.25.38.5.59.74s.45.32.51.53-.2.49-.36.53c-1.24.3-2.41,1-3.76.69a4.08,4.08,0,0,1-.44-.17l.5-.82a6.85,6.85,0,0,0-.9.27,2,2,0,0,1-2.66-1.13,18.27,18.27,0,0,0-1.29-2.58c-.74-1.27-1.56-2.5-2.34-3.75-.11-.18-.29-.36-.29-.54-.05-1.81-1-3.33-1.55-5,0,0,0-.08,0-.1,1.17-1.79-1-2.94-.89-4.55a17.71,17.71,0,0,0-.4-4.08,7.45,7.45,0,0,1-.67-1.64c-.3-1.92-.53-3.86-.75-5.8,0-.39.08-.8.08-1.2a3.41,3.41,0,0,0-.09-1.4,1.24,1.24,0,0,1,.35-1.74c-1.18-2.77-.91-5.56-.65-8.36.05-.59-.45-1.24-.69-1.85l-1.33.63a10.24,10.24,0,0,1-1.24.62c-1,.36-1.28,1-.69,1.9s-.18,2-1.52,2.26a2.27,2.27,0,0,0-1.91,1.31,2.67,2.67,0,0,0,.24.32c.95,1,.65,2-.71,2.39-.33.09-.66.15-1,.22-.8.18-1.38.51-1.31,1.5,0,.3-.22.62-.34.93s-.21.46-.14.55c.76,1-.14,1.64-.55,2.4-.56,1.05-1.41,2-1.09,3.36a3,3,0,0,1,0,1.33c-.29,1.22-1.32,1.5-2.36,1.75l-.73.14.28,1.39-1.19.33.55,1.21-2.36.5,3.21.85a6.57,6.57,0,0,1-1.25.63,2.46,2.46,0,0,0-1.79,2.44c.05.89.14,1.78.11,2.67,0,.26-.32.59-.58.75a3.4,3.4,0,0,0-1.37,2.7c-.09.72-.25,1.12-.89,1.39s-1.14.5-1,1.31c0,.11-.06.33-.14.35a11.78,11.78,0,0,1-2.21.63c-.34,0-.73-.37-1.12-.59.22-.78.5-1.26,1.35-1.37a6.75,6.75,0,0,0,2-.8c.2-.1.29-.42.56-.85-1.05.15-1.91-.08-2.39.85a.68.68,0,0,1-.38.31,1.9,1.9,0,0,0-1.42,1.08c-.48.8-1.25.67-1.79-.1a5,5,0,0,0-1-.84c-.05,0-.14,0-.19-.06-1.94-1.6-4.33-2.7-5.7-4.93-.16-.26,0-.76.11-1.29-1.08-.33-1-1.68-1.6-2.65a11,11,0,0,0-1.05-1.28,11.06,11.06,0,0,0-.48,2.14,1.51,1.51,0,0,0,.62,1c.57.41.54.72,0,1.09-.19.13-.38.28-.56.43-1,.81-.94,1.44.17,2.08l.09,0c.51.39,1.5.87,1.44,1.14a8.36,8.36,0,0,1-1.11,2.19c.9.14,1,.38.93,1.55a14.81,14.81,0,0,0,0,3.26c.15,1-.18,1.31-1,1.45a3.09,3.09,0,0,0-.55.22,3,3,0,0,0,.66.18c.59,0,1.1.07,1.18.81s-.42.89-1,1.07a7.58,7.58,0,0,0-1.12.6l.09.34,2.45.48v2l-1.81.5c.14.15.17.22.22.24l1.55.48c-.23.5-.46,1-.7,1.49-.12.23-.28.44-.42.66,1.38.75,1.7,1.74,1,2.89l1.16,1-2.43,3.1a11,11,0,0,1,1.59-.2,1.06,1.06,0,0,1,.73.37c.09.13-.05.51-.2.7-.45.57-1,1.11-1.46,1.68.42.53.76,1.42,1.85,1.36.12,0,.34.34.36.53a10.41,10.41,0,0,1,0,2.23c-.05.33-.51.62-.81.89a10.75,10.75,0,0,0-1.23,1.09.9.9,0,0,0,.16.85,1.46,1.46,0,0,1,.18,2.29,4.89,4.89,0,0,0-.47,1.12,3.4,3.4,0,0,1-.48.88c-1,1.05-1,1,.22,2-.25.23-.58.4-.7.66a2.31,2.31,0,0,0-.33,1.35,4.69,4.69,0,0,1-1,4.05,1.44,1.44,0,0,0-.66,1.65c.08.28-.27.77-.55,1a4.65,4.65,0,0,1-1.21.56c.09.51.16,1,.27,1.55s.19,1.21-.61,1.48a.71.71,0,0,0-.34.57c0,.94-.45,1.25-1.29,1.48-.43.11-.73.69-1.1,1a8.67,8.67,0,0,1-.74.62c-.67.49-1.36,1-2,1.45l.1.3a7,7,0,0,1,.79,0,1.93,1.93,0,0,1,.95.18c1.07.81,1,.81.23,2a7.25,7.25,0,0,0-.89,1.7,2.67,2.67,0,0,1-2.19,1.69,11.73,11.73,0,0,0-2.64,1.18c-.17.09-.19.59-.17.9a1.76,1.76,0,0,1-1.23,1.84c-.24.05-.53-.13-.8-.2.17-.18.36-.36.53-.55s.33-.41.5-.61c-.2-.14-.39-.38-.6-.4-.65-.05-1.34-.21-1.72.68-.08.19-.81.1-1.55.17l1.15.57c.31.15.86.29.88.47a1.52,1.52,0,0,1-.41,1.11,28.89,28.89,0,0,1-3.47,2.58,10.9,10.9,0,0,1-2.54.79c-.34.1-.88.06-1,.28-.57,1-1.45.77-2.24.57a2.56,2.56,0,0,0-2.62.69,2.07,2.07,0,0,0-.58,1.17c-.06.79-.36,1.07-1.15,1a6.25,6.25,0,0,0-1.52.28c-.29.06-.58.18-.87.22-1.07.16-2.14.3-3.43.48-.51-.6-1.05-.61-1.67.45a1.16,1.16,0,0,1-1.71.14c-1.1-.83-1.43-.62-2,.6-.21.51-1.1.75-1.68,1.09s-.89.5-1.49.84c-.63-.38-1.21,0-1.68.82-.32-1-.32-1-2.15-1,.23,1.23-.41,1.24-1.42,1.16a8.58,8.58,0,0,0-2.53.55,7.92,7.92,0,0,1-1.73.46c-2.29,0-4.68.31-6.75-.83-.95-.53-2-.89-2.89-1.45a1.56,1.56,0,0,1-.57-.89,3.54,3.54,0,0,1-.1-1.37,1.12,1.12,0,0,1,.53-.75c.18-.09.55.14.77.31s.18.39.49.6a4.18,4.18,0,0,0,.2-1.09,1,1,0,0,1,1-1.1c.91-.12,1.83-.09,2.75-.16a1.48,1.48,0,0,0,.92-.27c.63-.71,1.1-.79,1.33-.05l1.31.5c.12.05.22.17.34.19.9.12,1.79.25,2.7.33a1.2,1.2,0,0,0,.75-.11,9.11,9.11,0,0,1,3.92-1.23c1.24-.16,2.4-.84,3.64-1.09a8.54,8.54,0,0,1,2.94,0c1.21.19,1.87.12,2.44-1s1.52-1.16,2.48-1.22,1.58,0,1.84-1a.7.7,0,0,1,.29-.4,38,38,0,0,0,3.89-2.07,3.74,3.74,0,0,1,3.83-.5c-.12-.76-.44-1.47-.22-1.77s1-.35,1.53-.56a1.07,1.07,0,0,0,.58-.5c.47-1.4,1.8-1.94,2.76-2.85.6-.57,1.17-1.17,1.73-1.77s1.17-1.29,1.74-1.94c1.28-1.46,2.62-2.87,3.79-4.41.87-1.14,1.48-2.48,2.25-3.69s1.53-2,2.12-3.14c1.32-2.45,3.19-4.71,3.53-7.55.3-2.51,1.3-4.82,1.66-7.3.05-.4.23-.9.06-1.19-.94-1.71.43-3.31.15-5,0-.25.3-.56.49-.9l-.69-.25c0-1.57-.3-3.08.07-4.39.66-2.34-1.2-4.28-.7-6.53a7.45,7.45,0,0,0,.05-1.83,2,2,0,0,0-.18-.88c-.91-1.6-.7-3.29-.54-5,0-.27-.2-.55-.25-.84s-.12-.88-.16-1.32c0-.13.09-.29.05-.39-.35-.84-.74-1.65-1.08-2.49-.41-1-.79-2-.12-3.12.12-.21-.07-.61-.13-1-1.1-.11-1.19-.84-1.11-1.87a9.22,9.22,0,0,0-.41-2.26,7.51,7.51,0,0,1-.19-1.26,5.38,5.38,0,0,0-.17-2.62A2.45,2.45,0,0,1,263,139c1.11-1.15,1-1.16-.15-2.43a9,9,0,0,1-1.17-2.38c-.21-.5-.19-1.29-.54-1.5-1-.62-.81-1.54-.86-2.41,0-.63.08-1.17-.92-1.17-.68,0-.52-.64-.19-1.05a3.71,3.71,0,0,1,.62-.56c-.46-.58-1.22-1.13-1.15-1.56s.9-.81,1.57-1.35c-2.21-.16-3-1.4-2.83-3.35l-1.25.18a11.48,11.48,0,0,1-.49-1.27,2.92,2.92,0,0,0-1.83-2.2c-.13,0-.32-.12-.34-.21-.26-1.53-1.33-.89-2.1-.7a28.9,28.9,0,0,0-3,1.09c.63,1.22.51,1.53-.56,2.24-.85.56-1.93.91-2,2.21,0,.17-.56.36-.88.44-.57.14-1.15.2-1.7.29,0,.26,0,.33,0,.39.06.37.13.74.19,1.11-.35-.11-.7-.22-1-.35a3.89,3.89,0,0,0-.54-.27c-.75-.17-.52-.53-.1-1a2.72,2.72,0,0,0-.65,0c-.44.12-1.25,0-1.07.7a1.84,1.84,0,0,0,1.22,1c.56.14,1,0,1,.89,0,.26.58.55.95.88-.54.75-.82,1.75-2.22,1.61-.51-.05-1.1.37-1.75.13-.2-.07-.72-.06-.78.62,0,.46-.8.84-1.2,1.29s-.64.85-1.09,1.46a5.8,5.8,0,0,0-1-.28,6,6,0,0,0-1.59,0c-.74.12-.33.88-.56,1.2a5.46,5.46,0,0,1-1.67,1.5c-.16.1-.67-.46-1.06-.62-.86-.34-1.74-.63-2.62-.91-.17,0-.41.11-.59.07a4.49,4.49,0,0,1-.8-.29,6,6,0,0,1,.54-.58c.13-.1.31-.13.29-.33l1.12-1.61-1-1L225,131.21l-1-1.38c.26-.32.69-.81,1.06-1.34a.76.76,0,0,0,.1-.66c-.48-.93-1-1.82-1.51-2.76-.23-.46-.56-1.13-.39-1.49.72-1.59.48-3.2.42-4.83a5.56,5.56,0,0,1,.5-1.76c.12-.36.27-.71.4-1.07-.32-.11-.63-.22-1-.35a2.23,2.23,0,0,1-.37-.24c.4-.36.75-.94,1.12-1,1.38,0,1.66-1.07,2.13-2-.37-.58-.73-.69-1.27-.13-.72.74-1.5,1.42-2.26,2.12l-.41-.22c.18-.64.37-1.28.56-2-.48,0-1.06-.15-1.65-.16a.64.64,0,0,0-.52.36c-.15.51-.2,1-.31,1.57-.05.25-.14.5-.21.76a8.32,8.32,0,0,1-.86-.54c-.12-.09-.14-.3-.27-.6-.43.2-1.17.41-1.16.57a33.84,33.84,0,0,0,.48,3.39l-3.18.88.26,2c.31-.1.82-.29,1.34-.42a4.54,4.54,0,0,1,1-.11s.16.45.09.52a3.37,3.37,0,0,1-1,.67c-.3.12-.7,0-1,.16a5.76,5.76,0,0,0-1,.71l.16.28a6.16,6.16,0,0,1,1.33-.22,5.84,5.84,0,0,1,1.33.36c-.19.62-.19,1.43-.6,1.82a12.7,12.7,0,0,1-2.59,1.69c-.25.14-.65,0-1,0,.26.91.28.87,1.1,1.14a3.82,3.82,0,0,1,.95.67c-.27.21-.53.43-.81.62s-.69.42-.94.57c.48.46,1.18.83,1.29,1.34s-.58.93-.85,1.32c.32.6,1,1.33.93,1.88a2,2,0,0,1-2.6,1.67l-.1.36c.3.23.59.62.91.65a1.4,1.4,0,0,1,1.26,1.26c.07.26-.33.71-.6,1-.53.5-1.12.94-1.78,1.48l1,1.14c-1.3,1.79-2.82,3.21-5.38,2.9l.1.39a29.91,29.91,0,0,1,3.42.23,1.57,1.57,0,0,1,1,1.05,4.25,4.25,0,0,1-.25,1.6l-2.33.12-.1.31a1.68,1.68,0,0,1,.87,2.13c-1,.18-2,.34-2.92.53-.07,0-.13.15-.18.23-.6,1-1.32,1.16-2.32.48a6.5,6.5,0,0,0-1.14-.66c-.64-.25-1.27-.56-1.72.46-.15.35-1,.41-1.54.57a11,11,0,0,0-1.73.48,2.71,2.71,0,0,1-2.77-.33,2.93,2.93,0,0,1-1.13-2.57c0-.88.45-1.23,1.65-1.69l1.45,1,.1-.22-.58-1.73c-.52,0-1.19.11-1.85.12-.51,0-1.26.36-1.17-.7,0-.11-.35-.22-.43-.38-.28-.62-.88-1.21-.22-2a2.53,2.53,0,0,0,.12-3.3c0-.06-.08-.15-.13-.16-1.49-.21-.89-1.14-.78-2s-.2-1.54-.13-2.3c.13-1.4-.46-2.88.57-4.21a3.7,3.7,0,0,0,.44-1.83c.14-1.27.2-2.55.3-3.82.17-2.1.13-4.22,1.22-6.15a17,17,0,0,0,.82-2.37c.11-.31.25-.8.47-.85,2.07-.51,1.66-2.76,2.8-3.92a12.69,12.69,0,0,0,1.17-1.7l-1.28-.06c-.05-.08-.12-.16-.1-.2l2.38-4c.09-.14.26-.26.28-.41.27-1.6,1.67-2,2.82-2.59a3.38,3.38,0,0,0,.94-.74.8.8,0,0,0,.11-.73c-.07-.14-.44-.15-.69-.17s-.66,0-1,0a1.89,1.89,0,0,0-2,.7c-.61.81-.88.67-1.5-.2-.23-.32-1-.31-1.51-.34-.09,0-.33.51-.32.77,0,.53.67,1.21-.08,1.53s-1.63.9-2.49,0c-.53,1.23-1.81,1-2.62,1.59a12.09,12.09,0,0,0-1.6,1.6c-.22.24-.38.53-.58.78s-.42.49-.61.74-.07.29-.17.36c-1.11.75-2.24,1.47-3.34,2.23-.44.31-.83.71-1.26,1.08l1.45.92-2.1,2c.29.87,1,.22,1.57.2a2.43,2.43,0,0,1,.27.86,2.49,2.49,0,0,1-.41,1.17c-.12.14-.58,0-.88,0a4.38,4.38,0,0,0-1.08.27,12.63,12.63,0,0,0-1.16.59l-.53-1.29-2,1.8,2.29,1.3-1.32,1.58,1.78.23-1.1,1.93,1.33.51c-.07,1.3-.07,1.3-1.48,2.3,1.14.45,1.22.59.83,1.57-1-.75-1.76-.37-2.77.46l2.5,1.42-1.21,3.5-.25-.22a5,5,0,0,0-.93.37c-.92.57-1.82,1.18-2.89,1.88.09.12.27.56.47.57a2.33,2.33,0,0,0,1.19-.36c.66-.4,1.27-.88,2-1.38.57,1.94-.19,2.9-1.9,2.81a4.69,4.69,0,0,0-1.15.23v.39a6.18,6.18,0,0,1,1.5.34,2,2,0,0,1,1,.93c.09.28-.3.78-.57,1.09a6.43,6.43,0,0,1-1,.78l.7.83-.81,1-1.45.16c.38.37.75.75,1.28,1.29a6,6,0,0,1-.18,2.43c-.73,1.46.3,3-.51,4.39a1.09,1.09,0,0,0,0,.6c.13,1.61.08,1.71-1.41,2.33.26.25.71.51.72.77s-.44.6-.59.94-.3.79-.17,1c.55.89.09,1.15-.66,1.14a2.31,2.31,0,0,0-2.3,1.07c-.24.38-.55.56-.33,1.11.13.32-.09.78.05,1.4l-1.76.66c0-.32-.08-.4-.06-.45.19-.47.39-.93.59-1.39a5.81,5.81,0,0,0-1.84-.11c-1.28.33-1.35.31-1.82-.92a5.5,5.5,0,0,1-.21-3.12,9.7,9.7,0,0,0-.58-3.81c-.2-.77-.84-1.45-1-2.23a11.19,11.19,0,0,1,.2-2.61c-1.21-.21-1.19-1.31-1-2.29s-.59-1.48-.77-2.24a2.33,2.33,0,0,1-.09-1.16l-.69-.5,1-.7c-.14-.14-.24-.3-.36-.33-1.23-.31-1.64-1.42-2.24-2.31a1,1,0,0,1,.06-.89c.41-.67.08-.89-.48-1.12a8.58,8.58,0,0,1-1.67-.88c-.15-.09-.18-.48-.12-.71s.4-.16.6-.15c.61,0,1.22.15,1.53.19.58.45.94.95,1.39,1a2.6,2.6,0,0,0,2.49-.47c-.21-.13-.29-.23-.37-.22-1.46.18-2.33-.65-3.2-1.69a2,2,0,0,0-2.09-.85,9.25,9.25,0,0,1-3.17-.21c-.24,0-.4-.63-.69-1.14l-.91-.53c1.2-1.37,2.5-1.89,4.14-1.3a.61.61,0,0,0,.48,0c1.3-1,2.68-.6,4.06-.25a6.2,6.2,0,0,0,1.13.07c0,.49.11,1,.11,1.47a.79.79,0,0,0,.84.91c1.34.12,1.37.19.61,1.35C169.45,133.23,170.59,133.46,169.74,134.81Zm38.18-3.39a5.68,5.68,0,0,1-.31-1.55,28.22,28.22,0,0,1,.58-2.85,5.6,5.6,0,0,1,.62-2.21,2.3,2.3,0,0,0,.29-2.45,1.93,1.93,0,0,1,1.48-2.5c.57-.14,1.21-.26,1.1-1.25-.28.17-.52.24-.64.4-.57.79-1.07.49-1.15-.23a5.32,5.32,0,0,1,.17-2.93,2.06,2.06,0,0,0,0-2c-.31.29-.51.63-.8.72-1.06.35-1.27,1.13-1.31,2.12-.06,1.43-2,2.49-3.39,2.12a3.2,3.2,0,0,0-2,.51c-.28.15-.3.8-.44,1.23l.55.38c.13-.28.18-.71.4-.82a4,4,0,0,1,1.75-.52c.28,0,.8.71.75,1-.14.86-.36,1.79-1.5,2-.22,0-.41.24-.68.41,1.54.71,1.58.84.95,2.32a2.5,2.5,0,0,0-.09.49,1.1,1.1,0,0,1-1.88.72,2.78,2.78,0,0,0-.93-.26l-.15.35,1.35.9a1.29,1.29,0,0,1,.2,2.16c-.16.16-.42.45-.37.53.39.67-.07,1.09-.31,1.64s.05,1.36-.52,1.91c0,0,.16.34.26.52l.48.89c.42.81-.17,1.32-.67,1.7-.2.16-.76-.17-1.21-.29a7.74,7.74,0,0,0-.63,1.09,9.19,9.19,0,0,0-.32,1.4,3.57,3.57,0,0,0,1.44.08c.91-.35,1.11.3,1.43.84.09.16.06.41.16.56s.54.79.65.75a2.15,2.15,0,0,0,1-.76c.53-.76,1-1.58,1.44-2.38a7.24,7.24,0,0,0,.91-1.65c.28-1.07.33-2.21.6-3.29A9.28,9.28,0,0,1,207.92,131.42Zm37.9-22.82a5.7,5.7,0,0,0-3.34.21,1,1,0,0,0-.15.89c.57.59.15.9-.26,1.23-.18.14-.42.22-.58.37-1,1-2.1,1.84-3.66,1.25a.59.59,0,0,0-.33,0c0,.54.08,1.07-.12,1.42-.79,1.39-1.67,2.72-2.55,4.06-.3.45-.83.8-1,1.28a.92.92,0,0,1-1.13.72,11.18,11.18,0,0,1-1.31-.12c-.64-.16-1,.12-1.13.67,0,.22.42.61.73.75.91.41,1.83.76,1.82,2.27.71-.41,1.47-.58,1.71-1,.58-1,.89-2.25,1.37-3.36a3.83,3.83,0,0,1,.8-1.12c1-1,2.07-2,3.1-3a.57.57,0,0,0,.16-.36c0-1.08.7-1.16,1.53-1.13a7.68,7.68,0,0,0,1-.16l-.65-.56a3,3,0,0,1,2.32-2.32c-.32.82-.55,1.41-.78,2,1.33.33,1.23-1.38,2.38-1.47l-1-1.07Zm-44.42-8.51a3.71,3.71,0,0,0,1-.23c.85-.53,1.68-1.09,2.49-1.67.06,0-.1-.58-.16-.59a2.2,2.2,0,0,0-1.07.15,5,5,0,0,1-2.27.92c-.26,0-.48.52-.72.79Zm39,18.34c-.8.17-1.56.3-2.29.49-.2.06-.5.44-.47.48a3.39,3.39,0,0,0,.94,1.13c.24.14.77-.07,1.08-.26A1.49,1.49,0,0,0,240.42,118.43Zm-39.76,14.08a2.78,2.78,0,0,0-2.93,1.89A2.08,2.08,0,0,0,200.66,132.51Zm43.7-13-2.45-1.31c.62,1.13.51,1.71-.65,1.91-.27,0-.44.68-.66,1l.21.15Zm-30,114.11a3.82,3.82,0,0,1-.37-1c-.1-1.15-.95-1.62-2.12-1l1,.79C212.67,233.43,213.16,233.88,214.34,233.62ZM294.2,136.3l-.32.75c.78.49,1.72.35,1.57-.12a4,4,0,0,0-1.13-1.63c-.17-.17-.76.11-1.16.19l.85.63ZM192.83,104c.78-.26,1.54-.48,2.27-.78.16-.06.24-.38.28-.6s-.25-.28-.35-.26c-.81.2-1.63.41-2.42.68-.14,0-.25.38-.24.58S192.63,103.81,192.83,104ZM169,139.9c-.5.86-.48,1.16.24,1.31a6.83,6.83,0,0,0,1.63.07c.15,0,.44-.25.42-.32a.8.8,0,0,0-.36-.52C170.31,140.23,169.67,140.08,169,139.9Zm44.93-30.48-.11-.56-4.19.63.08.56Zm-36.38,15.19c.38.86.76,1.51,1.69,1.09a.76.76,0,0,0,.2-.73C179,124.06,178.3,124.46,177.54,124.61Zm36.65-20,1-.67a3.94,3.94,0,0,0-1.13-.76c-.23,0-.58.39-.87.61Zm28.52,2.25a1.94,1.94,0,0,0-3,.66Zm-43.45,18.37a2.63,2.63,0,0,0,.51-.75c0-.16-.3-.57-.33-.56-.61.25-1.2.56-1.79.85l.09.2Zm-21.77,19.47-1.51.2.49,1.53h.4Zm19.22-42.51,1,1.73.12-2Zm51.93,1.54-1.71.22C247.45,105,247.55,105,248.64,103.77Zm-39,8.43.21-.37-1-.73-.28.46Zm46.3,3.49-.09.48,1.22.21.09-.49Zm-12.27-.77c.78.73,1.25.67,1.61-.25Zm-38.17-4.67.22.42,1.35-.94-.24-.38Zm23.75-2.91-.08.49c.46,0,.91.09,1.36.11a1.28,1.28,0,0,0,.06-.34C230.11,107.5,229.66,107.42,229.21,107.34Zm-16.38,6.46v.28h1.42v-.28Z"/>
    <path d="M134.44,37.27c.71.71.07,1.56-.22,2.44a1.85,1.85,0,0,0-.16,1,9.15,9.15,0,0,1-.12,6.11c0,.1-.1.23-.07.3.73,1.32-.05,2.68.09,4a11.62,11.62,0,0,1-.51,3.36c0,.27-.34.49-.53.73.85,1.31.35,4.59-.65,5.37l-.13,2-.1,0a6.64,6.64,0,0,1,.24,1.57c-.08,1.17-.32,2.33-.4,3.49-.12,1.64-.07,3.3-.27,4.92a11.43,11.43,0,0,1-1,2.51,2.1,2.1,0,0,1,0,2.6,4,4,0,0,1,.28,1c0,1.56-.1,3.11-.15,4.67a.34.34,0,0,1,0,.1c-.36,1.38-.68,2.76-1.09,4.12-.12.38-.51.67-.76,1s-.38.57-.63,1c1.37.39,1.71,1.14,1.2,2.34-.15.36,0,.86,0,1.29s-.22.94-.39,1.67c1,1.11.32,2.68.26,4.2s-.08,3.29-.21,4.93c-.18,2.38.13,4.8-.64,7.15-.24.75-.08,1.64-1.33,1.82.53.4,1.07.6,1.1.86a9.84,9.84,0,0,1,0,2.6c-.06.37-.51.67-.91,1.16l1.18.59c-.62.48-.91.72-1.22,1a1,1,0,0,0,.13,1.81c.9.39.76.88.2,1.35-.81.67-1.06,1.22-.09,2,.2.16.09.8,0,1.19s-.32.48-.5.72a2.71,2.71,0,0,1,.5,4.32c-.46,2.15,1.25,4.27-.07,6a11.41,11.41,0,0,1,.64,2.2c.15,1.8.19,3.62.4,5.46.75-.61,1.56-1,1.58-2.2,0-.36.71-.85,1.19-1s1-.19,1.33-.72c.24-.35.9-.38,1.33-.64.87-.52.84-.75.08-1.38s-1.76-1.5-2.59-2.3c-.51-.49-.32-1.63.4-2.63,0-.1-.1-.22-.16-.33-.73-1.41-.66-1.58.79-2.07a2.54,2.54,0,0,0,1.09-.64l-1,.17-.15-.3a7.36,7.36,0,0,1,1.44-.7c.1,0,.38.6.66,1.06.17-.15.53-.32.57-.56s-.23-.57-.45-.68a7.59,7.59,0,0,0-1.61-.53c-.83-.19-1.05-.67-.42-1.24a12.36,12.36,0,0,1,2.37-1.7,25.25,25.25,0,0,1,3.47-1.47,6.73,6.73,0,0,1,1.73-.13,1.44,1.44,0,0,1,.21-2.37,7.85,7.85,0,0,1,2.43-.54l0-.32-1.59-.39-.56-1c1-1.16,2.86-.5,4-1.84l-1.24-.7,1.54-2.63.54.45c-.12-.5-1.22-.74-.51-1.46a16.56,16.56,0,0,1,1.3-1.05c.34-.28.67-.57,1-.86l1.05-.93-.77-.44c.75-.61,1.46-1.14,2.1-1.74.83-.76.8-.92-.16-1.71.7-.61,1.39-1.19,2.07-1.79.12-.1.29-.27.27-.4-.11-1.09.57-1.67,1.37-2.19s0-1.35.21-2c.1-.25,0-.67.11-.79,1-.8,2-1.54,3.06-2.29-.54-1.42-.15-2.21,1.3-2.84.61-.26,1.34-.45,1.24-1.13l3.17-2.2.18.25-.6.67c.21.14.37.35.52.35,1.11,0,2.21-.15,3.31-.08,1.54.1,3.07.34,4.6.52,1.25,1.71,3,.42,4.53.78.17,0,.41-.36.65-.4a6.54,6.54,0,0,1,1.82-.07c.18,0,.49.75.43.79-1,.88-.13,2.42-1.17,3.28-.11.09-.06.39-.07.59s.08.64-.06.76c-1.12,1-1.5,2.49-2.54,3.52a3.11,3.11,0,0,0-.74,1.18c-.55,1.56-2,2.3-3,3.41-.13.14-.44.34-.42.38.49.9-.44,1.29-.69,1.91a1.73,1.73,0,0,1-2.63.64c-.55-.46-.54-.88.08-1.29.38-.24.72-.52,1.28-.92a2.35,2.35,0,0,0-2.52,2.33h-1.6c.62.78,1.21,1.45,1.7,2.19a.83.83,0,0,1,0,.83,1.18,1.18,0,0,1-.89,0,11.36,11.36,0,0,0-1.11-.46,2.21,2.21,0,0,0-2.43.65,16.75,16.75,0,0,1-2.26,1.67c1.64-.21,2.95-1.18,4.44-2l-.24.76a5,5,0,0,1,.63.28c.66.41.64.79,0,1.18-1.12.66-2.24,1.34-3.34,2-.13.08-.29.37-.24.47.44.83-.1,1.31-.58,1.85a4.15,4.15,0,0,1-3.81,1.35,9.45,9.45,0,0,0-2.39.33l2,1.08,0,.41-2,.52.73,1.12-1.54.14-.25-.37c-.4.65-.8,1.3-1.22,1.94-.1.15-.29.38-.41.36-1-.18-1.68.57-2.43,1s-1.37,1-2-.07c-.11-.18-.46-.21-1-.42,1.21,1-.14,1-.26,1.56,1.54.07,3.05.2,4.56.19.44,0,.88-.41,1.41-.67.54.73,1.21.58,1.92,0a1,1,0,0,1,.56-.17,6.56,6.56,0,0,1,1.83.06,4.14,4.14,0,0,0,3.42-.81,4,4,0,0,1,.76-.24l-.21,1c.66-.18,1.19-.35,1.73-.47,1.5-.34,2.89.29,4.3.61a9.29,9.29,0,0,1,2.26,1.06c.62.35.78.77.15,1.35a2,2,0,0,1-2.24.47c-.48-.18-1-.27-1.67-.45l-.29-.72a4,4,0,0,0-.92.25A17.57,17.57,0,0,0,160,131a2.25,2.25,0,0,0-.53,1,1.07,1.07,0,0,1-1.36.86,3.52,3.52,0,0,0-1.51.26c-.71.22-1.37.4-2-.28a.73.73,0,0,0-.63-.18c-1.17.43-2.35.87-3.48,1.41a1.11,1.11,0,0,0-.45.91,4,4,0,0,0,.49,1.15,2.22,2.22,0,0,0,.62-.37,5.22,5.22,0,0,0,.42-1.08l.58,1c-1.14,2.18-3.12,1.41-5,1.74.41-1.08,2.43-1.25,1.06-2.79h-1.4c-.1,1.24-1.39,1.3-2.06,2.07a8.72,8.72,0,0,1,1.07.28c.22.09.54.32.53.45s-.23.67-.41.7c-1.15.17-2.31.26-3.47.37l.31.3L141.5,140c-.36-.48-.59-.9-.67-.87-.73.22-1.44.53-2.21.83.77,1.19.44,2.08-.66,2.43a5,5,0,0,0-.69.17c-.35.16-.66.37-1,.56.25.29.45.69.77.85.56.29.71.58.48,1.19-.37,1-.54,2-.94,3-.51,1.21-.57,1.18-1.61.29l-1.6.87.48,1.19-1.24.25a4.33,4.33,0,0,1-2.57,4.52c.72.3.72.3,1.63-.55l1.2,1.61c-.25.68-.44,1.35-.73,2a1.29,1.29,0,0,1-.67.59,2.71,2.71,0,0,0-1.95,2.57,5.57,5.57,0,0,1-.44,1.28l.39.22c-.18.59-.2,1.27-.55,1.62a9.73,9.73,0,0,1-2.37,1.66c-.24.13-.79-.35-1.19-.55-.62,1.21-1.77.94-2.75.94a1.54,1.54,0,0,1-1.13-.79,15.25,15.25,0,0,1-.61-2.46,3.53,3.53,0,0,0-.2-.88c-.49-.88-.82-1.73-.14-2.25a11,11,0,0,1-.58-2.1c-.08-2.19-.09-4.38-.09-6.57a9.37,9.37,0,0,1,.23-1.39c.11-.9.21-1.79.32-2.77-.78-.17-1-.71-.57-1.52a.62.62,0,0,0,.1-.38c-.27-1.26-.64-2.5-.81-3.77-.08-.59.32-1.23.34-1.86,0-1.26-.08-2.53-.08-3.8,0-1.55,0-3.1.06-4.66a9.37,9.37,0,0,1,.09-1.18c.12-.81.27-1.61.39-2.36a6.38,6.38,0,0,1-.39-1.94c.14-1.13.54-2.22.78-3.33a1.59,1.59,0,0,0-.21-.82c-.18-.43-.6-.84-.58-1.24,0-1,.32-2,.39-3,0-.51-.22-1-.21-1.57q.07-2.83.27-5.67c0-.67.44-1.36.34-2-.34-2.16.52-4.2.44-6.32a11.21,11.21,0,0,1-.1-1.28c.1-1.21.25-2.41.39-3.61.22-1.95.43-3.9.68-5.84.09-.66.27-1.31.42-2a5.89,5.89,0,0,0,.17-.79c.1-1.84.09-3.7.29-5.53.25-2.41.72-4.79,1-7.2.15-1.2,0-2.42.16-3.63.33-3.52.66-7,1.09-10.55.18-1.47.69-2.89.9-4.36.4-2.88.6-5.79,1-8.67.59-3.83,1.34-7.64,2-11.47.2-1.13.3-2.28.47-3.41a2.46,2.46,0,0,1,.34-1,5.47,5.47,0,0,0,1.26-3c0-.76.63-1,1.26-.7,1.34.55,2.69,1.1,4,1.77s1.23,1.59.14,2.32a2.21,2.21,0,0,0-1.08,2.32C135.21,35.87,134.76,36.47,134.44,37.27Zm17.8,76.31H150l-.47-1.21c-.34.49-.49.88-.77,1.07a1.86,1.86,0,0,1-1.13.37c-.84-.1-.83-.16-.92.81C148.56,114.76,150.45,114.82,152.24,113.58ZM164,98.42l1.35-1.22c.13-.11.34-.15.41-.28a5,5,0,0,0,.3-.79c-.25,0-.56-.1-.73,0-.75.52-1.46,1.09-2.27,1.71Zm-19.63,30.15L141,130.05C143,130.61,143.94,130.2,144.37,128.57Zm5.27-12c-.34,1,.55,1.24,1.05,1.55.24.15.82-.25,1.39-.45Zm9.14-21c.33.15.47.27.56.25a12.08,12.08,0,0,0,1.77-.65c.19-.1.22-.51.33-.77-.26,0-.6-.24-.77-.14A23,23,0,0,0,158.78,95.56Zm-3.82,35a1.94,1.94,0,0,0,2.76.32C156.8,130.5,156,130,155,130.56Zm-1.24-14.16.05.31,2.93-.51v-.4c-.27-.11-.6-.39-.82-.32C155.15,115.72,154.44,116.09,153.72,116.4Zm14-11.39c1.09,1,1.7.8,2-.51Zm-11.36.71-.18-.26-1.42.27,0,.38c.35.19.71.52,1.07.51C156,106.62,156.17,106,156.35,105.72Zm-25.07,41.57.12.34,2.12-.71-.09-.29A2.42,2.42,0,0,0,131.28,147.29Zm18.09-24.86-.21.13c0,.34,0,.67,0,1s0,.56.11.68.48.09.79.13Zm9.95-21.9v.33h1.73v-.33Zm-26.5,32.59,0,.28,1.64-.14C133.67,132.08,133.28,132.9,132.82,133.12ZM156,110.51l.45.2.63-.83c-.26,0-.6-.21-.76-.1S156.11,110.25,156,110.51Z"/>
    <path d="M67.87,48c-.92-.55-.58-1.17,0-1.71,1-1,1.87-2.24,3.41-2.77.64-.23,1.09-1.32,1.39-2.1A2,2,0,0,1,74,40.1a1.59,1.59,0,0,0,.92-.84,3.41,3.41,0,0,1,1.94-2.19,4.65,4.65,0,0,0,1.61-1.6,5.84,5.84,0,0,1,3.78-2.53,1,1,0,0,0,.28-.1c-.64-1.21.11-2.64,1.68-3.23a14.75,14.75,0,0,0,2.51-.94,8,8,0,0,0,1.43-1.61c.24-.28.49-.66.8-.75,2.06-.58,3.33-2.39,5.18-3.23,1.27-.59,2.42-1.46,3.66-1.94,3.19-1.25,6.59-2,9.88-.33a22.41,22.41,0,0,1,4.72,3.31,7,7,0,0,1,1.88,4.27c.43,2.94-.7,5.49-2.18,7.93-.81,1.36-1.5,2.79-2.38,4.1a4.31,4.31,0,0,1-1.55,1.08A5.14,5.14,0,0,1,107,42a2.89,2.89,0,0,1-.83,0,2.15,2.15,0,0,1,.13-.93c.26-.38.73-.62,1-1,.56-.82,1-1.7,1.56-2.54a9.09,9.09,0,0,1,.84-1.12,3,3,0,0,0,.88-2.17,30.66,30.66,0,0,1,.8-5.08c0-.19.19-.45.12-.56-.91-1.29-1.13-3.13-2.88-3.76a12.92,12.92,0,0,0-2-.54,11.78,11.78,0,0,0-5.4.37,18.93,18.93,0,0,0-8.28,4.81c-1.12,1.08-2.45,1.92-3.59,3-1.47,1.34-2.8,2.82-4.25,4.18-1.1,1-2.28,2-3.42,2.94-.18.15-.48.27-.52.45-.45,1.9-2.11,2.89-3.21,4.3C76,46.74,74,49.1,72,51.5c-1.76,2.16-3.5,4.33-5.26,6.5-.48.6-1,1.2-1.47,1.79-.73.88-1.52,1.7-2.18,2.62A28.78,28.78,0,0,0,61.55,65c-.48.84-1,1.68-1.42,2.53-.88,1.61-1.74,3.23-2.61,4.85a.83.83,0,0,0-.11.45c.2,1.52-.38,2.1-2,1.81.08.29.07.6.22.76.71.81.28,1.42-.28,2-.16.17-.43.38-.41.54.26,1.6-1.07,2.4-1.73,3.53s-1.46,2-.71,3.34c.3.55-.14,1-.74,1.23s-1.29.56-.75,1.46c0,.05.07.15,0,.19a13.24,13.24,0,0,0-1.08,2c-.26.76-.58,1.34-1.45,1.45,0,0-.07.11-.2.31l1.36.25c-.32,1,.23,2.35-1.27,2.88-.06,0-.14.09-.14.14.12,1.74-1.88,2.84-1.32,4.82a3.4,3.4,0,0,1-.73,2.72c-.87,1-.47,2.05-.76,3.05-.06.22,0,.54-.11.68-.94,1-.51,2.29-.77,3.42s0,2.66-1.38,3.42c-.13.07-.18.34-.22.53-.16.7-.31,1.41-.43,2.11a2,2,0,0,0,0,.69c0,.2.23.44.17.57-.51,1,0,2.16-.19,3.13-.18,1.21-.38,2.44-.59,3.66-.14.84-.57,1.56,0,2.37a.45.45,0,0,1,0,.39c-.66,1.13-.3,2.31-.3,3.5,0,1.88.37,3.72.33,5.59,0,.85-.2,1.07-1.77,1.56.48.31.76.61,1.07.66.56.09.71.29.53.81-.09.24-.19.6-.08.76,1.3,1.78.73,3.95,1.28,5.88a8.1,8.1,0,0,0,.52,1.12,7.1,7.1,0,0,1,.43,1c.27.86.43,1.77.77,2.6A42.91,42.91,0,0,1,46.66,154a7.5,7.5,0,0,0,2.25,3.54.94.94,0,0,1,.23.33c.7,1.45,1.39,2.82,3.09,3.47.53.2.71,1.23,1.12,1.84a3.47,3.47,0,0,0,.88.78c.15.1.41,0,.57.15,1.66,1,3.3,2.07,5,3.06a3.9,3.9,0,0,0,1.52.5,18.25,18.25,0,0,0,3.53.26c1.7-.1,2.31-1.56,1.24-3a12,12,0,0,1,2-1.61c1.18-.62,1.22-.53.8-1.46,1-1.44,2-2.78,2.93-4.14a1.09,1.09,0,0,0,.13-.79c-.22-.76,0-1.17.69-1.64.39-.26.32-1.23.49-2a8.14,8.14,0,0,1,1.43-.07c.31,0,.85.33.84.48,0,.51.07,1.25-.83,1.22-.25,0-.5-.05-.75-.07l-.08.27a9.38,9.38,0,0,0,1.5.49c1.56.25,1.54.23,1.86,1.85.14.72.51,1.45,0,2.14-.68.9-1.43,1.75-2.1,2.66a1.4,1.4,0,0,0-.35,1.05,4.19,4.19,0,0,1-.28,3.51.83.83,0,0,0-.14.48c.17.94-.47,1.22-1.13,1.56-.32.17-.73.47-.8.78-.25,1.22-1.19,1.2-2.1,1.32-.71.1-1.4.31-2.11.44a10.92,10.92,0,0,1-1.88.27q-4.2.1-8.4.12a15.62,15.62,0,0,1-1.81-.18c-.77-.07-1.53-.16-2.29-.19a2,2,0,0,1-2-1.16,2.59,2.59,0,0,0-2.32-1.49c-.94,0-1.81-.09-1.85-1.35a.59.59,0,0,0-.35-.43c-1.43-.33-1.94-1.61-2.69-2.6a11.21,11.21,0,0,1-.88-2.09,2.6,2.6,0,0,0-.58-.62c-.56-.54-1.14-1.06-1.68-1.62a3.66,3.66,0,0,1-.73-.94,6.59,6.59,0,0,1-.37-1.19,10.4,10.4,0,0,1,1.08-.23,6.26,6.26,0,0,1,.86,0l.06-.26a5.33,5.33,0,0,1-1.76-.71c-.39-.36-.47-1.07-.76-1.82-1.08-.26-1.28-.58-.92-2,.18-.74.14-1.21-.73-1.57-1.23-.5-2-2.61-1.73-4.14a1.79,1.79,0,0,0,.06-.79c-.18-.65.15-.83.7-1a4.16,4.16,0,0,0,.93-.49l-.12-.39c-.47,0-1,.07-1.42.13-.84.1-1.38-.16-1.45-1.1-.18-2.63-.39-5.25-.58-7.87,0-.78-.08-1.55-.09-2.33,0-1.38,0-2.76,0-4.14a1.43,1.43,0,0,1,.44-.72,6.6,6.6,0,0,1,.9-.67c-1.36-.11-1.35-.76-1.21-1.57s.06-1.42.15-2.13c.19-1.42.4-2.85.66-4.27.05-.25.36-.45.54-.68a4.28,4.28,0,0,1-.47-3.77c.27-1.28.75-2.51,1-3.79.32-1.47.51-3,.76-4.45.29-1.68.81-2.12,2.3-2l.72-1.63s-.06-.1-.11-.1c-1.48.08-1.82-.57-1.28-2.06s.94-3.2,1.47-4.78A7.63,7.63,0,0,1,41.18,95c.12-.19.45-.34.46-.52a3.93,3.93,0,0,1,.64-2.71c-.68-1.16.29-2,.66-2.9.67-1.64,1.6-3.17,2.42-4.75,0-.1.12-.28.07-.36-.66-1,.18-1.68.6-2.46s.77-1.79,1.25-2.64a3.93,3.93,0,0,1,1.15-1.34A1.09,1.09,0,0,0,49,75.84a1.81,1.81,0,0,1,.13-1.22c.27-.68.68-1.3,1-2,.51-1.11,1-2.25,1.49-3.37a.48.48,0,0,1,.19-.23c1.59-.78,1.81-2.41,2.5-3.8a58.4,58.4,0,0,1,3.39-5.38c.48-.72,1-1.41,1.55-2.11.17-.21.32-.52.54-.6a2.75,2.75,0,0,0,1.71-2c.43-1.23,1.56-1.84,2.53-2.6.56-.44,1.49-.75.93-1.8,0-.1,0-.33,0-.38,1-.66,1.2-2.31,2.79-2.19C67.75,48.18,67.78,48.13,67.87,48Z"/>
    <path d="M212.23,212a3.51,3.51,0,0,0,.29.38c1.14,1.2,1.23,1.69.54,3.21a2.51,2.51,0,0,0-.24.66c-.11,1.73-.1,1.73-1.13,3a4.19,4.19,0,0,1,.76.42,10.19,10.19,0,0,1,.8.81,6.09,6.09,0,0,1-1.22.8c-.27.09-.65-.18-1-.2a2,2,0,0,0-.67.23c.15.23.25.6.45.66a6.2,6.2,0,0,0,1.26.16,17,17,0,0,0,0,2.27,1.22,1.22,0,0,0,.68.78c1.3.5,1.49,1,.66,2.18a1.53,1.53,0,0,0,.38.1c.38,0,.9-.22,1.13,0a3.1,3.1,0,0,1,.89,1.32c.17.47-1.08,1.67-1.72,1.73-.41,0-.82,0-1.22.06-.83.11-1.8.1-1.47,1.63l-.79-.69c-.19.14-.39.32-.61.46-.94.59-1.7.27-1.82-.82-.15-1.35-.21-2.71-.33-4.29-.73-.39-.65-1.42-.6-2.33a3.63,3.63,0,0,0-.86-3c-.61-.6-.29-1.14.09-1.71.16-.24.33-.73.24-.82-1.22-1.13-.24-2.45-.25-3.64,0-.55.9-1.1,1.17-1.4-.15-1.09-.29-1.91-.35-2.74,0-.21.25-.61.42-.62,1.63-.17,1-1.49,1.13-2.33a8.62,8.62,0,0,0-.37-2.3,6.38,6.38,0,0,0,.89-.18,2.16,2.16,0,0,0,.51-.36c-.18-.12-.34-.31-.53-.34a8.42,8.42,0,0,0-1.14,0c.16-.94.37-1.69,1.39-1.82.76-.1.85-.61.66-1.2-.25-.81-.55-1.6-.87-2.39-.08-.19-.34-.3-.49-.43.47-1.21.9-2.38,1.39-3.52.18-.43.57-.76.79-1.18a7.16,7.16,0,0,0,.34-1,8.44,8.44,0,0,1,.35-1,8.14,8.14,0,0,0,.77-1.57c.27-1.19.21-1.2,1.42-.86a3.28,3.28,0,0,0,.61,0c-.12-.26-.15-.51-.27-.56-.48-.23-1-.41-.78-1.09A1.64,1.64,0,0,1,215,187a16,16,0,0,0,1.8-.29,4.09,4.09,0,0,0,.81-.41,6.31,6.31,0,0,1-1.7-.79c-.17-.16.1-.79.16-1.16l2.06.44c-.08.79.82,1.4.36,2.53-.27.65.47,1.72-.61,2.42.77.57.62,1,.13,1.7a13.66,13.66,0,0,0-1.36,3c-.28.76-.43,1.57-.67,2.5-.6-.68-1.26-1-1.95-.33a.82.82,0,0,0-.06.79c.27.42.73.72,1,1.14.37.58.6,1.26,1.52.76.12-.06.66.29.64.39-.06.32-.25.82-.45.85-.85.15-.84.64-.86,1.32a4.84,4.84,0,0,1-.51,2c-.13.27-.72.39-1.13.46-1.19.21-1.32.32-1.49,1.62,1-.09,1.5.33,1.39,1.37,0,.17.14.37.26.53.51.74.3,1.23-.52,1.46s-1.49.55-2.24.83l0,.25,1.17.4Zm-1.79-12.12a10,10,0,0,0,1.13.86.78.78,0,0,0,.69.06c.21-.15.29-.48.42-.73-.22-.12-.43-.32-.66-.33A13.94,13.94,0,0,0,210.44,199.87Z"/>
    <path d="M224.34,169.58c.06,1,.12,2.08.19,3.2-1.62-.15-1,1.14-1.12,1.83-.17.89-1,2.58-1.82,2.81a3,3,0,0,1-1.15,0,6.55,6.55,0,0,1-1.24-.28,4.23,4.23,0,0,1-.77-.5c.24-.27.45-.72.73-.76a5.1,5.1,0,0,1,1.54.26c-.13-.45-.08-1-.88-1.08a1.7,1.7,0,0,1-.62-.33c.13-.21.22-.5.41-.62.78-.51,1.58-1,2.48-1.52a4.27,4.27,0,0,1-.6-.27c-.33-.19-.65-.4-1-.61a4.81,4.81,0,0,1,.66-.94c.49-.43,1-.79,1.65-1.23l-1.25-1a9.06,9.06,0,0,1,1.07-.48c1-.31,1.16-.57.86-1.64-.07-.21-.16-.57-.07-.65.78-.66.42-1.51.42-2.28s0-1.44.85-1.75c.13-.05.31-.27.29-.38-.13-.89.29-1.15,1.1-1.09.09,0,.26-.2.31-.34.38-1.1.9-1.37,2.37-1.11a8.53,8.53,0,0,1-.8,1.4c-.41.52-.78,1-.51,1.72.06.17-.5.55-.86.71-.35.75-.7,1.5-1,2.26a.92.92,0,0,0-.08.58c.41,1.08.14,1.86-.72,2.16-.12.82-.2,1.44-.29,2.06Z"/>
    <path d="M84,163.9c-.18-.92-.41-1.82-.51-2.74,0-.3.31-.91.42-.9.63.09,1.56-.57,1.84.44a2.5,2.5,0,0,0,2.49,1.84,10.54,10.54,0,0,1,2.32.65c.22.08.5.52.44.68a2.53,2.53,0,0,1-.81,1.3,5.8,5.8,0,0,1-1.76.26c-.48.07-1,.21-1.43.27a6,6,0,0,1-1,0c-.2,0-.4-.1-.6-.13C83.94,165.4,83.94,165.4,84,163.9Z"/>
    <path d="M217.55,183.08c-.39.13-.8.4-1.08.3s-.89-.62-.83-.81a12.7,12.7,0,0,1,1.28-3.32c1.15-1.8,1.31-1.73,3.23-.71.3.16.82-.07,1.44-.15-.36.54-.66,1-1,1.49s-.48,1,.23,1.17.74.93.58,1.4a2.69,2.69,0,0,1-1,1.18c-.31.21-.8.13-1.17.27C218.31,184.22,217.73,184.05,217.55,183.08Z"/>
    <path d="M227.79,157.93c-.45-.41-1-.8-.95-.89.21-.41.6-1,.9-1s.77.56,1.16.88Z"/>
    <path d="M229.8,155.22l-1.58.27-.09-.51,1.59-.27Z"/>
    <path d="M204.48,102.75l-.76-.62c.24-.28.46-.78.71-.8a5,5,0,0,0,2.27-.91,2,2,0,0,1,1.08-.15,1,1,0,0,1,.16.58c-.81.58-1.64,1.14-2.49,1.67A3.71,3.71,0,0,1,204.48,102.75Z"/>
    <path d="M243.5,121.1a1.48,1.48,0,0,1-.75,1.84c-.31.19-.83.39-1.07.25a3.29,3.29,0,0,1-.94-1.13s.27-.42.47-.47C241.94,121.39,242.7,121.26,243.5,121.1Z"/>
    <path d="M203.74,135.17a2.08,2.08,0,0,1-2.93,1.89A2.78,2.78,0,0,1,203.74,135.17Z"/>
    <path d="M247.44,122.18,243.88,124l-.2-.15c.22-.36.39-1,.66-1,1.16-.2,1.26-.78.65-1.91Z"/>
    <path d="M297.28,139l-.19-.18-.85-.63c.4-.07,1-.35,1.16-.19a4.07,4.07,0,0,1,1.13,1.63c.14.47-.79.61-1.57.13Z"/>
    <path d="M195.91,106.63c-.2-.16-.46-.26-.46-.38s.1-.53.24-.58c.79-.27,1.61-.48,2.42-.67.1,0,.36.19.35.26s-.12.53-.28.6C197.45,106.15,196.68,106.37,195.91,106.63Z"/>
    <path d="M172.07,142.56c.68.18,1.32.33,1.93.55a.78.78,0,0,1,.36.51c0,.08-.27.32-.42.32a6.81,6.81,0,0,1-1.63-.07C171.59,143.73,171.57,143.42,172.07,142.56Z"/>
    <path d="M217,112.08l-4.22.64-.08-.57,4.19-.63Z"/>
    <path d="M180.62,127.27c.76-.14,1.47-.54,1.89.36a.76.76,0,0,1-.2.73C181.38,128.78,181,128.13,180.62,127.27Z"/>
    <path d="M217.27,107.31l-1-.82c.29-.22.64-.66.87-.61a3.81,3.81,0,0,1,1.12.77Z"/>
    <path d="M245.78,109.57l-3,.65A1.93,1.93,0,0,1,245.78,109.57Z"/>
    <path d="M202.34,127.94l-1.52-.27-.09-.2c.59-.29,1.18-.59,1.79-.85,0,0,.37.41.33.56A2.81,2.81,0,0,1,202.34,127.94Z"/>
    <path d="M180.57,147.4l-.62,1.73h-.4l-.5-1.53Z"/>
    <path d="M199.79,104.89l1.17-.32-.12,2.05Z"/>
    <path d="M251.72,106.44c-1.09,1.2-1.19,1.21-1.72.21Z"/>
    <path d="M212.68,114.86l-1.11-.63.28-.47,1,.74Z"/>
    <path d="M259,118.35l1.22.2-.09.49-1.22-.2Z"/>
    <path d="M246.71,117.59l1.61-.26C248,118.25,247.49,118.31,246.71,117.59Z"/>
    <path d="M208.54,112.91l1.33-.89.24.37-1.36.94Z"/>
    <path d="M232.29,110l1.34.27a1.91,1.91,0,0,1-.06.33c-.45,0-.9-.07-1.36-.11Z"/>
    <path d="M215.91,116.46h1.42v.28h-1.42Z"/>
    <path d="M152.24,113.58c-1.79,1.24-3.68,1.18-5.58,1,.09-1,.08-.91.92-.81a1.86,1.86,0,0,0,1.13-.37c.28-.19.43-.58.77-1.07l.47,1.21Z"/>
    <path d="M164,98.42l-.94-.57c.81-.62,1.52-1.19,2.27-1.71.17-.11.48,0,.73,0a5,5,0,0,1-.3.79c-.07.13-.28.17-.41.28Z"/>
    <path d="M144.37,128.57c-.43,1.63-1.42,2-3.33,1.48Z"/>
    <path d="M149.64,116.61l2.44,1.1c-.57.2-1.15.6-1.39.45C150.19,117.85,149.3,117.6,149.64,116.61Z"/>
    <path d="M158.78,95.56a23,23,0,0,1,1.89-1.31c.17-.1.51.09.77.14-.11.26-.14.67-.33.77a12.08,12.08,0,0,1-1.77.65C159.25,95.83,159.11,95.71,158.78,95.56Z"/>
    <path d="M155,130.56c1-.56,1.84-.06,2.76.32A1.94,1.94,0,0,1,155,130.56Z"/>
    <path d="M153.72,116.4c.72-.31,1.43-.68,2.17-.92.22-.07.55.21.82.32v.4l-2.93.51Z"/>
    <path d="M167.71,105l2-.51C169.41,105.81,168.8,106,167.71,105Z"/>
    <path d="M156.35,105.72c-.18.32-.36.9-.55.9-.36,0-.72-.32-1.07-.51l0-.38,1.42-.27Z"/>
    <path d="M131.28,147.29a2.42,2.42,0,0,1,2.15-.66l.09.29-2.12.71Z"/>
    <path d="M149.37,122.43l.7,1.94c-.31,0-.62,0-.79-.13s-.1-.45-.11-.68,0-.66,0-1Z"/>
    <path d="M159.32,100.53h1.73v.33h-1.73Z"/>
    <path d="M132.82,133.12c.46-.22.85-1,1.66.14l-1.64.14Z"/>
    <path d="M156,110.51c.1-.26.13-.62.32-.73s.5.06.76.1l-.63.83Z"/>
    <path d="M210.44,199.87a13.94,13.94,0,0,1,1.58-.14c.23,0,.44.21.66.33-.13.25-.21.58-.42.73a.78.78,0,0,1-.69-.06A10,10,0,0,1,210.44,199.87Z"/>
  </g>
</svg>
